<?xml version="1.0" standalone="no"?>
<!DOCTYPE svg PUBLIC "-//W3C//DTD SVG 20010904//EN"
 "http://www.w3.org/TR/2001/REC-SVG-20010904/DTD/svg10.dtd">
<svg version="1.0" xmlns="http://www.w3.org/2000/svg"
 width="260.000000pt" height="260.000000pt" viewBox="0 0 260.000000 260.000000"
 preserveAspectRatio="xMidYMid meet">
<metadata>
Created by potrace 1.11, written by Peter Selinger 2001-2013
</metadata>
<g transform="translate(0.000000,260.000000) scale(0.100000,-0.100000)"
fill="#000000" stroke="none">
<path d="M766 1573 c68 -181 170 -451 227 -600 l102 -273 201 0 c183 0 202 2
209 18 36 94 435 1172 435 1177 0 3 -84 4 -187 3 l-187 -3 -131 -422 c-71
-232 -133 -419 -137 -415 -3 4 -65 194 -136 422 l-130 415 -195 3 -195 2 124
-327z"/>
</g>
</svg>
